# xmcd
#
# Track frame offsets: 
#        150
#        14547
#        37197
#        58737
#        73418
#        92009
#        113910
#        130353
#        145427
#        163913
#        182605
#        199742
#
# Disc length: 2960 seconds
#
# Revision: 0
# Processed by: cddbd v1.5.1PL0 Copyright (c) Steve Scherf et al.
# Submitted via: ExactAudioCopy v0.90b4
#
DISCID=bc0b8e0c
DTITLE=Pickin' ON Wilco - performed by - Old School Frieght Train - Ca
DTITLE=sino Side (A Bluegrass Tribute)
DYEAR=2004
DGENRE=Bluegrass
TTITLE0=I Am Trying To Break Your Heart
TTITLE1=Jesus, Ect.
TTITLE2=A Shot In The Arm
TTITLE3=Casino Queen
TTITLE4=Heavy Metal Drummer
TTITLE5=Can't Stand It
TTITLE6=I Must Be High
TTITLE7=I'm The Man Who Loves You
TTITLE8=Far - Far Away
TTITLE9=Misunderstood
TTITLE10=When You Wake Up Feeling Old
TTITLE11=Summer Teeth
EXTD=
EXTT0=I am trying to break your heart
EXTT1=
EXTT2=
EXTT3=
EXTT4=
EXTT5=
EXTT6=
EXTT7=
EXTT8=
EXTT9=
EXTT10=
EXTT11=
PLAYORDER=
